<?xml version="1.0" standalone="no"?>
<svg viewBox="0 0 200 200" xmlns="http://www.w3.org/2000/svg">
  <path fill="#E2C044" d="M37.6,-68.4C48,-59.2,55,-47.5,60.1,-35.7C65.2,-23.8,68.5,-11.9,70.3,1.1C72.2,14.1,72.7,28.2,67.2,39.3C61.7,50.4,50.1,58.6,37.9,62.2C25.7,65.7,12.9,64.7,-1.3,67C-15.5,69.3,-31,74.9,-41.5,70.4C-51.9,65.8,-57.3,51,-63.1,37.5C-69,24.1,-75.4,12,-75.9,-0.3C-76.4,-12.6,-71,-25.3,-63.7,-36.2C-56.4,-47.1,-47.1,-56.3,-36.2,-65.1C-25.2,-74,-12.6,-82.4,0.5,-83.4C13.7,-84.3,27.3,-77.6,37.6,-68.4Z" transform="translate(100 100)" />
</svg>
